<svg width="600" height="423" viewBox="0 0 600 423" fill="none" xmlns="http://www.w3.org/2000/svg">
<g clip-path="url(#clip0)">
<path d="M306.432 421.937C324.478 421.937 339.107 407.308 339.107 389.262C339.107 371.216 324.478 356.587 306.432 356.587C288.386 356.587 273.757 371.216 273.757 389.262C273.757 407.308 288.386 421.937 306.432 421.937Z" fill="#6C63FF"/>
<path d="M501.636 420.101C519.916 414.612 539.35 408.887 553.848 395.836C566.803 384.174 575.549 366.365 570.182 348.875C564.826 331.421 548.783 319.782 532.22 313.994C522.826 310.711 512.998 308.889 503.174 307.458C492.494 305.903 481.767 304.629 471.045 303.402C427.631 298.437 384.054 295.403 340.313 294.302C318.73 293.759 297.151 293.772 275.565 294.085C256.287 294.365 235.983 294.358 218.099 286.164C204.192 279.793 191.57 268.201 187.695 252.968C183.222 235.384 191.472 217.477 203.308 204.742C209.547 198.03 216.838 192.38 224.359 187.185C232.519 181.549 240.964 176.312 249.591 171.424C266.583 161.801 284.348 153.611 302.7 146.94C311.754 143.648 320.942 140.808 330.21 138.187C338.035 135.975 345.886 133.759 353.449 130.745C368.07 124.918 381.976 115.047 385.694 98.8642C389.218 83.5271 383.277 66.8774 372.862 55.4838C360.813 42.3022 342.645 36.5237 325.227 35.5888C305.673 34.5392 286.569 39.4331 268.19 45.6442C248.587 52.2687 229.407 59.8858 209.39 65.2516C189.54 70.5673 169.306 74.3284 148.872 76.5008C138.869 77.566 128.564 78.7687 118.501 77.9533C110.068 77.2699 101.677 74.7896 95.4622 68.8045C90.1329 63.6725 86.9582 56.6194 88.0497 49.1763C88.2479 47.8244 90.3016 48.3991 90.1046 49.7428C88.776 58.8032 94.9348 67.1521 102.524 71.4287C111.295 76.3715 121.969 76.3782 131.734 75.8129C152.908 74.534 173.939 71.4938 194.609 66.7238C214.919 62.0849 234.504 55.4534 254.067 48.3694C272.646 41.6415 291.641 35.075 311.49 33.6178C328.713 32.3533 346.83 34.8624 361.834 43.863C375.021 51.7732 384.717 64.965 387.807 80.1028C390.826 94.8952 386.645 109.784 375.447 120.107C363.854 130.795 347.957 135.364 333.142 139.572C314.352 144.91 295.965 151.149 278.168 159.251C260.128 167.439 242.827 177.166 226.456 188.323C210.653 199.122 195.059 212.709 190.061 231.974C187.733 240.948 188.163 250.466 192.058 258.942C195.522 266.478 201.226 272.818 207.871 277.707C223.726 289.374 243.709 291.77 262.861 292.008C284.371 292.276 305.881 291.55 327.398 291.903C371.249 292.623 415.01 295.292 458.681 299.91C469.624 301.068 480.553 302.349 491.468 303.751C501.286 305.013 511.137 306.266 520.789 308.506C537.953 312.49 554.654 320.15 565.321 334.702C570.056 341.01 572.989 348.485 573.808 356.329C574.555 364.515 572.551 372.716 568.85 379.998C560.658 396.115 545.314 406.367 529.019 413.102C520.291 416.71 511.238 419.443 502.203 422.156C500.886 422.552 500.324 420.496 501.636 420.102L501.636 420.101Z" fill="#F2F2F2"/>
<path d="M89.4257 66.416C98.841 66.416 106.474 58.7834 106.474 49.3681C106.474 39.9527 98.841 32.3201 89.4257 32.3201C80.0104 32.3201 72.3777 39.9527 72.3777 49.3681C72.3777 58.7834 80.0104 66.416 89.4257 66.416Z" fill="#F2F2F2"/>
<path d="M207.696 98.7362C217.111 98.7362 224.744 91.1035 224.744 81.6882C224.744 72.2729 217.111 64.6402 207.696 64.6402C198.281 64.6402 190.648 72.2729 190.648 81.6882C190.648 91.1035 198.281 98.7362 207.696 98.7362Z" fill="#F2F2F2"/>
<path d="M307.853 34.0959C317.268 34.0959 324.901 26.4633 324.901 17.048C324.901 7.63264 317.268 0 307.853 0C298.437 0 290.805 7.63264 290.805 17.048C290.805 26.4633 298.437 34.0959 307.853 34.0959Z" fill="#F2F2F2"/>
<path d="M370.362 106.55C379.777 106.55 387.41 98.9172 387.41 89.5018C387.41 80.0865 379.777 72.4539 370.362 72.4539C360.947 72.4539 353.314 80.0865 353.314 89.5018C353.314 98.9172 360.947 106.55 370.362 106.55Z" fill="#F2F2F2"/>
<path d="M285.833 190.369C295.248 190.369 302.88 182.736 302.88 173.321C302.88 163.906 295.248 156.273 285.833 156.273C276.417 156.273 268.785 163.906 268.785 173.321C268.785 182.736 276.417 190.369 285.833 190.369Z" fill="#F2F2F2"/>
<path d="M178.572 230.858C187.988 230.858 195.62 223.225 195.62 213.81C195.62 204.395 187.988 196.762 178.572 196.762C169.157 196.762 161.524 204.395 161.524 213.81C161.524 223.225 169.157 230.858 178.572 230.858Z" fill="#F2F2F2"/>
<path d="M292.226 294.077C301.641 294.077 309.273 286.445 309.273 277.03C309.273 267.614 301.641 259.982 292.226 259.982C282.81 259.982 275.178 267.614 275.178 277.03C275.178 286.445 282.81 294.077 292.226 294.077Z" fill="#F2F2F2"/>
<path d="M414.403 329.594C423.818 329.594 431.451 321.961 431.451 312.546C431.451 303.131 423.818 295.498 414.403 295.498C404.987 295.498 397.355 303.131 397.355 312.546C397.355 321.961 404.987 329.594 414.403 329.594Z" fill="#F2F2F2"/>
<path d="M557.179 321.78C566.595 321.78 574.227 314.148 574.227 304.732C574.227 295.317 566.595 287.684 557.179 287.684C547.764 287.684 540.131 295.317 540.131 304.732C540.131 314.148 547.764 321.78 557.179 321.78Z" fill="#F2F2F2"/>
<path d="M302.932 48.305C251.865 48.6657 210.052 90.1648 209.326 141.228C209.32 141.699 209.316 145.014 209.317 149.35C209.317 155.707 211.843 161.804 216.338 166.299C220.833 170.794 226.929 173.32 233.286 173.321H233.286C236.438 173.32 239.558 172.699 242.469 171.492C245.38 170.285 248.024 168.516 250.251 166.286C252.479 164.057 254.245 161.41 255.448 158.498C256.652 155.586 257.271 152.465 257.268 149.313C257.265 146.364 257.264 144.323 257.264 144.197C257.262 136.306 259.315 128.549 263.22 121.692C267.125 114.834 272.749 109.111 279.537 105.085C286.324 101.06 294.043 98.8707 301.934 98.7333C309.824 98.5959 317.615 100.515 324.539 104.302C331.463 108.088 337.282 113.612 341.423 120.33C345.565 127.047 347.887 134.727 348.16 142.614C348.433 150.501 346.648 158.324 342.981 165.312C339.314 172.3 333.892 178.213 327.246 182.47L327.254 182.48C327.254 182.48 293.138 204.443 282.737 234.572L282.746 234.574C280.917 240.747 279.99 247.151 279.995 253.589C279.995 256.235 280.15 279.389 280.451 298.181C280.556 304.666 283.206 310.849 287.83 315.397C292.453 319.944 298.679 322.492 305.164 322.491H305.164C308.422 322.491 311.649 321.846 314.657 320.594C317.666 319.343 320.397 317.508 322.694 315.197C324.991 312.886 326.808 310.143 328.041 307.127C329.275 304.11 329.899 300.88 329.879 297.622C329.774 280.411 329.718 260.371 329.718 258.916C329.718 240.416 347.565 221.982 362.225 209.962C379.107 196.12 391.255 177.256 396.134 155.977C397.214 151.596 397.81 147.11 397.91 142.599C397.91 130.159 395.448 117.841 390.667 106.356C385.885 94.8712 378.878 84.4459 370.05 75.681C361.221 66.916 350.746 59.9847 339.226 55.2862C327.707 50.5878 315.372 48.2151 302.932 48.305Z" fill="#6C63FF"/>
<path d="M599.154 422.833H0.845776C0.621886 422.833 0.407392 422.743 0.249306 422.585C0.0912204 422.426 0.00244141 422.212 0.00244141 421.988C0.00244141 421.764 0.0912204 421.549 0.249306 421.39C0.407392 421.232 0.621886 421.142 0.845776 421.142H599.154C599.378 421.142 599.594 421.231 599.752 421.39C599.911 421.548 600 421.763 600 421.988C600 422.212 599.911 422.427 599.752 422.586C599.594 422.744 599.378 422.833 599.154 422.833Z" fill="#3F3D56"/>
<path d="M446.407 193.918C458.177 193.918 467.717 184.377 467.717 172.608C467.717 160.839 458.177 151.298 446.407 151.298C434.638 151.298 425.097 160.839 425.097 172.608C425.097 184.377 434.638 193.918 446.407 193.918Z" fill="#2F2E41"/>
<path d="M407.029 413.505H398.321L394.177 379.915H407.031L407.029 413.505Z" fill="#A0616A"/>
<path d="M392.1 411.016H408.895V421.591H381.526C381.526 420.202 381.799 418.827 382.33 417.544C382.862 416.261 383.641 415.096 384.623 414.114C385.605 413.132 386.77 412.353 388.053 411.821C389.336 411.29 390.711 411.016 392.1 411.016Z" fill="#2F2E41"/>
<path d="M474.51 413.505H465.802L461.659 379.915H474.512L474.51 413.505Z" fill="#A0616A"/>
<path d="M459.582 411.016H476.377V421.591H449.007C449.007 420.202 449.281 418.827 449.812 417.544C450.343 416.261 451.122 415.096 452.104 414.114C453.086 413.132 454.252 412.353 455.535 411.821C456.818 411.29 458.193 411.016 459.582 411.016Z" fill="#2F2E41"/>
<path d="M443.169 194.042C452.804 194.042 460.615 186.231 460.615 176.596C460.615 166.96 452.804 159.149 443.169 159.149C433.533 159.149 425.722 166.96 425.722 176.596C425.722 186.231 433.533 194.042 443.169 194.042Z" fill="#A0616A"/>
<path d="M453.568 250.325L461.374 232.389C463.27 228.182 463.813 223.489 462.929 218.96C462.045 214.43 459.777 210.287 456.437 207.101C455.752 206.423 455.023 205.79 454.256 205.205C450.405 202.192 445.658 200.549 440.767 200.538C437.479 200.551 434.233 201.273 431.249 202.655C430.993 202.768 430.745 202.889 430.489 203.01C429.999 203.244 429.516 203.5 429.047 203.763C425.989 205.519 423.386 207.969 421.449 210.915C419.512 213.862 418.294 217.222 417.895 220.726L414.449 249.594C413.583 251.859 382.669 333.69 393.481 396.163C393.596 396.831 393.921 397.443 394.409 397.913C394.897 398.382 395.523 398.682 396.194 398.77L407.155 400.262C407.955 400.372 408.767 400.174 409.427 399.708C410.088 399.243 410.547 398.545 410.713 397.755L429.104 310.093C429.218 309.548 429.512 309.057 429.938 308.699C430.365 308.341 430.899 308.137 431.455 308.118C432.011 308.099 432.558 308.267 433.007 308.596C433.456 308.924 433.783 309.393 433.934 309.929L459.918 402.116C460.103 402.786 460.503 403.376 461.056 403.797C461.609 404.218 462.285 404.446 462.979 404.446C463.187 404.445 463.394 404.426 463.598 404.389L476.987 401.811C477.765 401.665 478.461 401.234 478.939 400.602C479.416 399.97 479.639 399.182 479.566 398.394C477.598 376.452 467.142 266.542 453.568 250.325Z" fill="#2F2E41"/>
<path d="M375.367 191.115C375.246 192.152 375.354 193.203 375.683 194.194C376.012 195.185 376.555 196.092 377.272 196.851C377.99 197.609 378.865 198.202 379.836 198.586C380.807 198.97 381.851 199.136 382.893 199.073L392.645 222.508L400.022 211.573L389.63 190.995C389.408 189.251 388.554 187.649 387.23 186.492C385.906 185.336 384.204 184.705 382.446 184.72C380.688 184.735 378.996 185.394 377.691 186.572C376.387 187.751 375.56 189.367 375.367 191.115L375.367 191.115Z" fill="#A0616A"/>
<path d="M442.202 273.923C443.238 273.799 444.236 273.449 445.123 272.898C446.01 272.347 446.765 271.608 447.336 270.734C447.907 269.859 448.278 268.87 448.426 267.836C448.573 266.803 448.491 265.749 448.187 264.75L468.705 249.806L456.352 245.18L438.762 260.081C437.117 260.703 435.758 261.906 434.942 263.464C434.126 265.021 433.909 266.823 434.333 268.529C434.757 270.236 435.793 271.727 437.243 272.721C438.693 273.715 440.457 274.143 442.202 273.923Z" fill="#A0616A"/>
<path d="M408.753 238.132C407.967 238.132 407.182 238.054 406.41 237.901C404.544 237.546 402.794 236.737 401.314 235.546C399.834 234.355 398.669 232.818 397.924 231.071L384.261 214.411C383.972 214.059 383.762 213.649 383.644 213.209C383.527 212.769 383.504 212.309 383.579 211.86C383.654 211.41 383.824 210.982 384.077 210.604C384.331 210.225 384.663 209.906 385.05 209.666L394.77 203.649C395.129 203.427 395.529 203.278 395.945 203.211C396.362 203.143 396.788 203.16 397.199 203.258C397.609 203.356 397.996 203.535 398.337 203.784C398.678 204.033 398.966 204.346 399.185 204.707L408.815 220.572L427.256 206.943C428.724 206.173 430.421 205.957 432.035 206.335C433.649 206.712 435.074 207.658 436.049 208.999C437.023 210.34 437.483 211.987 437.344 213.639C437.204 215.291 436.475 216.838 435.29 217.997L416.884 234.787C414.721 236.931 411.799 238.133 408.753 238.132Z" fill="#2F2E41"/>
<path d="M458.583 263.188C458.558 263.188 458.533 263.188 458.508 263.187C458.06 263.176 457.619 263.071 457.214 262.879C456.809 262.687 456.448 262.412 456.156 262.071L447.514 251.989C447.22 251.646 447.002 251.244 446.874 250.81C446.747 250.376 446.713 249.92 446.774 249.472C446.836 249.024 446.992 248.595 447.233 248.211C447.473 247.828 447.792 247.5 448.168 247.249L464.35 236.461L449.69 218.836C448.837 217.414 448.525 215.733 448.809 214.1C449.093 212.467 449.956 210.99 451.239 209.94C452.522 208.89 454.14 208.337 455.797 208.382C457.454 208.426 459.04 209.065 460.265 210.183L478.083 227.595C479.485 228.876 480.556 230.478 481.202 232.264C481.849 234.05 482.053 235.966 481.796 237.848C481.539 239.73 480.83 241.521 479.728 243.068C478.627 244.616 477.166 245.873 475.472 246.731L460.909 262.184C460.61 262.501 460.25 262.753 459.85 262.926C459.45 263.098 459.019 263.187 458.583 263.188Z" fill="#2F2E41"/>
<path d="M438.733 226.038C438.594 226.038 438.456 226.029 438.318 226.012C437.716 225.938 437.148 225.694 436.681 225.308C436.214 224.921 435.867 224.409 435.682 223.832L429.188 203.921C429.026 203.418 429.051 202.873 429.259 202.387C429.467 201.9 429.844 201.506 430.321 201.276L430.531 201.176C430.722 201.085 430.912 200.996 431.105 200.91C434.133 199.505 437.429 198.773 440.767 198.762C445.101 198.77 449.338 200.043 452.958 202.425C453.443 202.748 453.782 203.249 453.902 203.819C454.022 204.39 453.912 204.985 453.598 205.476L441.416 224.561C441.13 225.014 440.734 225.387 440.265 225.645C439.796 225.904 439.269 226.039 438.733 226.038Z" fill="#E6E6E6"/>
<path d="M463.208 163.094C467.059 163.094 470.181 159.972 470.181 156.121C470.181 152.27 467.059 149.148 463.208 149.148C459.357 149.148 456.235 152.27 456.235 156.121C456.235 159.972 459.357 163.094 463.208 163.094Z" fill="#2F2E41"/>
<path d="M439.304 148.457C434.406 148.457 429.708 150.402 426.245 153.866C422.781 157.329 420.835 162.027 420.835 166.925V174.739H430.446L435.042 166.925L436.421 174.739H465.586L457.773 166.925C457.773 162.027 455.827 157.329 452.363 153.866C448.9 150.402 444.202 148.457 439.304 148.457Z" fill="#2F2E41"/>
<path d="M466.792 151.345C467.563 148.934 469.16 146.871 471.301 145.521C473.442 144.17 475.991 143.618 478.499 143.96C482.943 144.703 486.456 148.275 488.55 152.265C490.643 156.255 491.61 160.72 493.017 165C494.425 169.28 496.421 173.583 499.974 176.354C503.527 179.124 508.979 179.876 512.468 177.026C512.07 179.996 510.747 182.766 508.688 184.943C506.629 187.121 503.937 188.596 500.994 189.16C498.051 189.724 495.005 189.348 492.286 188.086C489.568 186.824 487.316 184.739 485.847 182.127C484.006 178.851 483.531 175.012 482.985 171.294C482.439 167.576 481.729 163.729 479.531 160.681C477.333 157.633 473.218 155.643 469.726 157.031L466.792 151.345Z" fill="#2F2E41"/>
<path d="M240.054 161.983C233.697 161.982 227.601 159.456 223.106 154.961C218.611 150.466 216.085 144.369 216.085 138.012C216.084 133.676 216.087 130.361 216.094 129.89C216.296 115.039 220.036 100.451 227.004 87.3349C215.556 103.007 209.261 121.849 208.991 141.255C208.984 141.727 208.981 145.042 208.981 149.377C208.982 155.735 211.507 161.831 216.002 166.326C220.497 170.822 226.594 173.348 232.951 173.348C238.175 173.346 243.255 171.639 247.42 168.487C251.585 165.334 254.608 160.908 256.028 155.881C251.639 159.817 245.949 161.99 240.054 161.983Z" fill="#3F3D56"/>
<path d="M304.557 98.8138C311.906 99.1648 319.06 101.294 325.405 105.019C331.75 108.744 337.096 113.953 340.985 120.2C344.873 126.446 347.187 133.543 347.729 140.88C348.27 148.218 347.023 155.577 344.093 162.327C348.33 157.351 351.445 151.519 353.224 145.23C355.003 138.942 355.405 132.343 354.403 125.885C353.401 119.426 351.018 113.26 347.417 107.806C343.815 102.352 339.08 97.7391 333.534 94.281C327.989 90.8229 321.762 88.6012 315.28 87.7676C308.798 86.9339 302.212 87.5077 295.972 89.45C289.731 91.3923 283.983 94.6573 279.119 99.0225C274.255 103.388 270.389 108.75 267.785 114.745C272.285 109.451 277.941 105.262 284.317 102.499C290.692 99.7372 297.617 98.4763 304.557 98.8138Z" fill="#3F3D56"/>
<path d="M311.931 311.153C305.446 311.154 299.221 308.606 294.597 304.058C289.974 299.511 287.324 293.328 287.219 286.843C286.918 268.051 286.762 244.897 286.762 242.25C286.758 235.813 287.685 229.409 289.514 223.236L289.505 223.234C290.585 220.136 291.89 217.121 293.408 214.212C288.747 220.424 285.038 227.295 282.402 234.6L282.411 234.602C280.582 240.774 279.655 247.178 279.659 253.616C279.659 256.262 279.815 279.416 280.116 298.209C280.221 304.693 282.871 310.876 287.494 315.424C292.117 319.971 298.343 322.519 304.828 322.518C310.175 322.517 315.378 320.782 319.656 317.574C323.933 314.366 327.056 309.858 328.554 304.725C324.011 308.868 318.081 311.161 311.931 311.153Z" fill="#3F3D56"/>
<path d="M89.8861 413.829L98.5941 413.828L102.737 380.238L89.884 380.239L89.8861 413.829Z" fill="#FFB8B8"/>
<path d="M115.39 421.914L88.0201 421.915L88.0196 411.341L104.815 411.34C107.619 411.34 110.309 412.454 112.292 414.437C114.275 416.42 115.39 419.11 115.39 421.914L115.39 421.914Z" fill="#2F2E41"/>
<path d="M58.6315 413.829L67.3395 413.828L71.4829 380.238L58.6294 380.239L58.6315 413.829Z" fill="#FFB8B8"/>
<path d="M84.135 421.914L56.7655 421.915L56.765 411.341L73.56 411.34C76.3645 411.34 79.0543 412.454 81.0375 414.437C83.0207 416.42 84.1349 419.11 84.135 421.914L84.135 421.914Z" fill="#2F2E41"/>
<path d="M66.2415 403.498L57.7353 403.051C57.2967 403.028 56.867 402.918 56.4711 402.727C56.0753 402.537 55.7211 402.27 55.4292 401.942C55.1373 401.614 54.9134 401.231 54.7705 400.816C54.6276 400.4 54.5685 399.961 54.5967 399.522L64.7634 286.959L111.582 299.593L116.093 298.362L101.987 398.011C101.867 398.76 101.494 399.447 100.932 399.956C100.369 400.466 99.649 400.768 98.8912 400.813L89.7216 401.24C89.2631 401.266 88.8043 401.196 88.3742 401.035C87.9441 400.874 87.552 400.625 87.2228 400.305C86.8936 399.985 86.6344 399.6 86.4615 399.175C86.2887 398.749 86.2059 398.293 86.2186 397.834L87.88 338.026C87.8878 337.75 87.7917 337.48 87.6107 337.271C87.4297 337.062 87.1769 336.928 86.9021 336.896C86.6273 336.864 86.3504 336.936 86.126 337.098C85.9017 337.26 85.7461 337.5 85.6899 337.77L69.667 400.857C69.5158 401.605 69.1096 402.278 68.5178 402.761C67.9259 403.243 67.1851 403.506 66.4214 403.503C66.3618 403.503 66.3019 403.502 66.2415 403.498Z" fill="#2F2E41"/>
<path d="M91.4496 194.858C101.085 194.858 108.896 187.047 108.896 177.412C108.896 167.776 101.085 159.965 91.4496 159.965C81.8142 159.965 74.0031 167.776 74.0031 177.412C74.0031 187.047 81.8142 194.858 91.4496 194.858Z" fill="#FFB8B8"/>
<path d="M62.4024 228.668L64.3207 270.058L65.0142 285.116C65.0418 285.771 65.2644 286.404 65.6534 286.932C66.0424 287.46 66.5802 287.861 67.198 288.082L112.188 304.379C112.551 304.514 112.936 304.582 113.324 304.578C113.767 304.58 114.206 304.493 114.615 304.322C115.023 304.151 115.393 303.899 115.703 303.581C116.012 303.264 116.254 302.887 116.414 302.474C116.575 302.061 116.65 301.62 116.637 301.177L114.792 226.758C114.671 220.652 112.423 214.78 108.437 210.154C104.45 205.527 98.9747 202.437 92.9538 201.415C92.5187 201.349 92.0759 201.282 91.6332 201.223C87.8998 200.76 84.1102 201.12 80.531 202.279C76.9518 203.437 73.6699 205.366 70.9164 207.93C68.0651 210.552 65.8247 213.769 64.3535 217.352C62.8823 220.936 62.2162 224.799 62.4024 228.668L62.4024 228.668Z" fill="#CCCCCC"/>
<path d="M133.679 296.12C132.615 295.79 131.643 295.216 130.84 294.443C130.037 293.67 129.426 292.721 129.056 291.67C128.685 290.619 128.566 289.497 128.706 288.391C128.847 287.286 129.244 286.229 129.865 285.304L114.609 265.017L127.774 264.203L140.244 283.592C141.579 284.624 142.508 286.094 142.868 287.742C143.228 289.391 142.996 291.113 142.212 292.608C141.429 294.103 140.145 295.274 138.584 295.916C137.024 296.558 135.287 296.631 133.679 296.12H133.679Z" fill="#FFB8B8"/>
<path d="M122.952 281.633C122.548 281.469 122.18 281.227 121.87 280.919C121.561 280.612 121.315 280.247 121.147 279.844L98.162 225.082C97.711 224.009 97.4757 222.859 97.4695 221.696C97.4634 220.533 97.6866 219.38 98.1262 218.303C98.5659 217.226 99.2135 216.246 100.032 215.42C100.85 214.593 101.824 213.936 102.896 213.486C103.969 213.036 105.12 212.801 106.283 212.796C107.446 212.791 108.599 213.015 109.675 213.455C110.752 213.896 111.731 214.544 112.557 215.363C113.383 216.182 114.039 217.156 114.489 218.229L137.474 272.992C137.813 273.804 137.817 274.718 137.484 275.533C137.151 276.347 136.509 276.997 135.697 277.338L125.493 281.621C125.092 281.791 124.66 281.88 124.224 281.882C123.788 281.884 123.355 281.799 122.952 281.633L122.952 281.633Z" fill="#CCCCCC"/>
<path d="M85.8404 279.702L107.917 237.431C108.343 236.618 109.074 236.007 109.949 235.732C110.825 235.457 111.773 235.541 112.587 235.965L144.632 252.7C145.444 253.126 146.055 253.857 146.33 254.732C146.605 255.608 146.521 256.557 146.097 257.371L124.021 299.642C123.595 300.455 122.864 301.066 121.989 301.34C121.113 301.615 120.164 301.531 119.35 301.107L87.3061 284.372C86.4932 283.946 85.8823 283.215 85.6075 282.34C85.3328 281.464 85.4165 280.515 85.8404 279.702Z" fill="#3F3D56"/>
<path d="M100.646 260.389C100.253 259.346 99.6225 258.41 98.8038 257.654C97.9851 256.898 97.0011 256.345 95.9303 256.037C94.8595 255.729 93.7316 255.676 92.6366 255.881C91.5416 256.087 90.5098 256.546 89.6235 257.221L68.471 243.189L68.435 256.379L88.5274 267.682C89.6365 268.954 91.1579 269.794 92.8248 270.056C94.4917 270.318 96.1977 269.985 97.6434 269.115C99.0892 268.245 100.182 266.894 100.731 265.298C101.28 263.702 101.25 261.964 100.646 260.389Z" fill="#FFB8B8"/>
<path d="M73.9017 263.355L56.6145 249.662C54.7444 249.034 53.0546 247.961 51.6901 246.537C50.3257 245.112 49.3274 243.377 48.7808 241.482C48.2343 239.586 48.156 237.586 48.5525 235.654C48.949 233.721 49.8085 231.914 51.0573 230.387L66.7536 209.816C67.8444 208.483 69.3784 207.587 71.0753 207.292C72.7721 206.997 74.5185 207.323 75.9951 208.209C77.4717 209.096 78.58 210.484 79.1173 212.12C79.6546 213.757 79.585 215.532 78.9213 217.121L66.502 237.437L84.7533 246.093C85.1777 246.295 85.5545 246.584 85.859 246.941C86.1634 247.299 86.3884 247.717 86.5192 248.169C86.65 248.62 86.6836 249.093 86.6177 249.559C86.5518 250.024 86.388 250.469 86.1371 250.867L78.7697 262.526C78.5207 262.919 78.1917 263.256 77.8042 263.515C77.4167 263.773 76.9793 263.947 76.5203 264.026C76.5021 264.029 76.4837 264.032 76.4654 264.034C76.0143 264.102 75.5541 264.077 75.1132 263.961C74.6722 263.844 74.2599 263.638 73.9017 263.355Z" fill="#CCCCCC"/>
<path d="M78.2666 189.094C78.1917 188.875 78.168 188.642 78.1972 188.412C78.2264 188.183 78.3077 187.963 78.435 187.77C78.5623 187.576 78.7321 187.415 78.9315 187.297C79.1308 187.18 79.3545 187.109 79.5852 187.092C80.0577 187.117 80.5202 187.239 80.9445 187.448C81.3689 187.657 81.7465 187.951 82.0544 188.31C82.6858 189.038 83.4208 189.669 84.2359 190.183C85.0799 190.608 86.2245 190.548 86.7057 189.737C87.1575 188.975 86.8479 187.955 86.5744 187.071C85.8784 184.82 85.4889 182.485 85.4166 180.131C85.3378 177.502 85.7086 174.759 87.1638 172.709C89.0418 170.063 92.4 169.059 95.578 169.132C98.756 169.204 101.883 170.185 105.03 170.806C106.117 171.02 107.395 171.129 108.122 170.287C108.894 169.391 108.611 167.942 108.282 166.733C107.429 163.595 106.524 160.351 104.542 157.816C102.399 155.183 99.3374 153.46 95.9745 152.993C92.7459 152.593 89.4685 152.965 86.4118 154.079C81.4316 155.648 77.0493 158.701 73.8511 162.829C70.5542 167.219 69.1296 172.735 69.8888 178.172C70.6305 182.908 73.1398 187.186 76.911 190.145L78.2666 189.094Z" fill="#2F2E41"/>
<path d="M299.233 413.967C294.591 411.946 290.483 408.873 287.232 404.992C283.981 401.11 281.677 396.527 280.501 391.602C279.326 386.678 279.31 381.547 280.457 376.616C281.603 371.685 283.88 367.087 287.108 363.187C283.365 365.919 280.247 369.416 277.96 373.445C275.673 377.475 274.268 381.945 273.841 386.558C273.413 391.172 273.971 395.824 275.479 400.205C276.986 404.586 279.408 408.597 282.584 411.971C285.76 415.344 289.617 418.004 293.9 419.773C298.182 421.542 302.792 422.38 307.423 422.231C312.054 422.082 316.6 420.95 320.761 418.91C324.921 416.87 328.599 413.969 331.552 410.398C326.946 413.764 321.539 415.865 315.869 416.492C310.198 417.118 304.463 416.248 299.233 413.967Z" fill="#3F3D56"/>
</g>
<defs>
<clipPath id="clip0">
<rect width="600" height="422.833" fill="white"/>
</clipPath>
</defs>
</svg>
