<svg width="457" height="322" viewBox="0 0 457 322" fill="none" xmlns="http://www.w3.org/2000/svg">
<g id="questions" clipPath="url(#clip0)">
<path id="Vector" d="M382.079 319.92C396.003 315.739 410.805 311.379 421.847 301.441C431.715 292.559 438.376 278.998 434.288 265.678C430.209 252.386 417.99 243.523 405.374 239.115C398.219 236.615 390.734 235.228 383.251 234.138C375.116 232.954 366.946 231.984 358.779 231.05C325.712 227.268 292.521 224.958 259.205 224.12C242.766 223.706 226.33 223.716 209.888 223.954C195.205 224.167 179.741 224.162 166.119 217.923C155.526 213.071 145.912 204.243 142.961 192.643C139.554 179.252 145.838 165.615 154.853 155.917C159.605 150.805 165.158 146.503 170.887 142.547C177.102 138.255 183.534 134.267 190.105 130.544C203.047 123.216 216.578 116.979 230.557 111.899C237.452 109.392 244.451 107.229 251.51 105.234C257.47 103.549 263.449 101.862 269.21 99.566C280.347 95.1283 290.939 87.6114 293.77 75.2879C296.454 63.6083 291.929 50.9291 283.996 42.2525C274.819 32.2143 260.981 27.8139 247.715 27.1019C232.821 26.3026 218.27 30.0295 204.271 34.7594C189.34 39.8041 174.731 45.6048 159.485 49.691C144.366 53.7391 128.955 56.6033 113.391 58.2576C105.772 59.0687 97.9227 59.9847 90.2583 59.3637C83.8349 58.8432 77.4443 56.9545 72.7103 52.3966C68.6512 48.4884 66.2331 43.1173 67.0644 37.4492C67.2154 36.4197 68.7796 36.8573 68.6296 37.8806C67.6176 44.7803 72.3086 51.1382 78.0891 54.3951C84.7699 58.1591 92.8995 58.1642 100.338 57.7337C116.465 56.7598 132.484 54.4446 148.227 50.8121C163.697 47.2794 178.614 42.2294 193.514 36.8347C207.665 31.7112 222.133 26.7106 237.251 25.6009C250.369 24.638 264.169 26.5487 275.597 33.4029C285.641 39.4268 293.026 49.4727 295.38 61.0006C297.679 72.2655 294.494 83.6037 285.966 91.4647C277.135 99.6039 265.027 103.084 253.743 106.288C239.432 110.353 225.427 115.105 211.871 121.274C198.131 127.51 184.953 134.917 172.484 143.414C160.448 151.637 148.57 161.984 144.763 176.655C142.99 183.489 143.317 190.737 146.284 197.192C148.922 202.931 153.267 207.759 158.328 211.482C170.405 220.367 185.625 222.191 200.212 222.373C216.596 222.576 232.98 222.024 249.368 222.293C282.768 222.841 316.099 224.873 349.362 228.39C357.697 229.272 366.021 230.247 374.335 231.315C381.813 232.276 389.316 233.231 396.668 234.937C409.741 237.97 422.461 243.804 430.586 254.885C434.193 259.689 436.427 265.381 437.05 271.355C437.619 277.588 436.093 283.834 433.274 289.379C427.034 301.653 415.347 309.461 402.936 314.59C396.288 317.337 389.393 319.418 382.511 321.484C381.508 321.786 381.08 320.22 382.079 319.92L382.079 319.92Z" fill="#868D96"/>
<path id="Vector_2" d="M68.1126 50.5777C75.2839 50.5777 81.0974 44.7653 81.0974 37.5952C81.0974 30.4252 75.2839 24.6127 68.1126 24.6127C60.9412 24.6127 55.1277 30.4252 55.1277 37.5952C55.1277 44.7653 60.9412 50.5777 68.1126 50.5777Z" fill="#868D96"/>
<path id="Vector_3" d="M158.195 75.1905C165.366 75.1905 171.18 69.378 171.18 62.2079C171.18 55.0379 165.366 49.2254 158.195 49.2254C151.024 49.2254 145.21 55.0379 145.21 62.2079C145.21 69.378 151.024 75.1905 158.195 75.1905Z" fill="#868D96"/>
<path id="Vector_4" d="M234.481 25.9651C241.653 25.9651 247.466 20.1526 247.466 12.9825C247.466 5.81248 241.653 0 234.481 0C227.31 0 221.496 5.81248 221.496 12.9825C221.496 20.1526 227.31 25.9651 234.481 25.9651Z" fill="#868D96"/>
<path id="Vector_5" d="M282.092 81.1408C289.264 81.1408 295.077 75.3283 295.077 68.1583C295.077 60.9882 289.264 55.1758 282.092 55.1758C274.921 55.1758 269.108 60.9882 269.108 68.1583C269.108 75.3283 274.921 81.1408 282.092 81.1408Z" fill="#868D96"/>
<path id="Vector_6" d="M217.709 144.972C224.88 144.972 230.694 139.159 230.694 131.989C230.694 124.819 224.88 119.007 217.709 119.007C210.538 119.007 204.724 124.819 204.724 131.989C204.724 139.159 210.538 144.972 217.709 144.972Z" fill="#868D96"/>
<path id="Vector_7" d="M136.013 175.805C143.184 175.805 148.998 169.993 148.998 162.823C148.998 155.653 143.184 149.84 136.013 149.84C128.841 149.84 123.028 155.653 123.028 162.823C123.028 169.993 128.841 175.805 136.013 175.805Z" fill="#868D96"/>
<path id="Vector_8" d="M222.578 223.949C229.75 223.949 235.563 218.136 235.563 210.966C235.563 203.796 229.75 197.984 222.578 197.984C215.407 197.984 209.594 203.796 209.594 210.966C209.594 218.136 215.407 223.949 222.578 223.949Z" fill="#868D96"/>
<path id="Vector_9" d="M315.637 250.996C322.808 250.996 328.622 245.183 328.622 238.013C328.622 230.843 322.808 225.03 315.637 225.03C308.465 225.03 302.652 230.843 302.652 238.013C302.652 245.183 308.465 250.996 315.637 250.996Z" fill="#868D96"/>
<path id="Vector_10" d="M424.385 245.045C431.556 245.045 437.37 239.233 437.37 232.063C437.37 224.893 431.556 219.08 424.385 219.08C417.214 219.08 411.4 224.893 411.4 232.063C411.4 239.233 417.214 245.045 424.385 245.045Z" fill="#868D96"/>
<path id="Vector_11" d="M456.356 322H0.644293C0.473763 322 0.31039 321.931 0.189982 321.811C0.0695731 321.69 0.00195312 321.526 0.00195312 321.356C0.00195312 321.185 0.0695731 321.022 0.189982 320.901C0.31039 320.78 0.473763 320.712 0.644293 320.712H456.356C456.527 320.712 456.691 320.78 456.811 320.9C456.932 321.021 457 321.185 457 321.356C457 321.527 456.932 321.691 456.811 321.811C456.691 321.932 456.527 322 456.356 322Z" fill="#3F3D56"/>
<path id="Vector_12" d="M340.014 147.674C348.978 147.674 356.245 140.408 356.245 131.446C356.245 122.483 348.978 115.218 340.014 115.218C331.049 115.218 323.782 122.483 323.782 131.446C323.782 140.408 331.049 147.674 340.014 147.674Z" fill="#2F2E41"/>
<path id="Vector_13" d="M310.02 314.896H303.388L300.232 289.316H310.022L310.02 314.896Z" fill="#A0616A"/>
<path id="Vector_14" d="M298.65 313.001H311.442V321.054H290.595C290.595 319.996 290.804 318.949 291.208 317.972C291.613 316.995 292.206 316.107 292.954 315.36C293.702 314.612 294.59 314.019 295.567 313.614C296.544 313.209 297.592 313.001 298.65 313.001Z" fill="#2F2E41"/>
<path id="Vector_15" d="M361.419 314.896H354.786L351.63 289.316H361.42L361.419 314.896Z" fill="#A0616A"/>
<path id="Vector_16" d="M350.048 313.001H362.84V321.054H341.994C341.994 319.996 342.202 318.949 342.607 317.972C343.012 316.995 343.605 316.107 344.353 315.36C345.101 314.612 345.989 314.019 346.966 313.614C347.943 313.209 348.99 313.001 350.048 313.001Z" fill="#2F2E41"/>
<path id="Vector_17" d="M337.547 147.769C344.886 147.769 350.835 141.82 350.835 134.483C350.835 127.145 344.886 121.197 337.547 121.197C330.208 121.197 324.259 127.145 324.259 134.483C324.259 141.82 330.208 147.769 337.547 147.769Z" fill="#A0616A"/>
<path id="&#227;&#129;&#175;" d="M263.846 101.327L263.811 101.556C263.081 106.445 262.594 111.334 262.35 116.223M263.846 101.327L261.423 145.632C261.665 134.194 261.908 122.784 262.15 116.214L262.35 116.224C262.35 116.223 262.35 116.223 262.35 116.223M263.846 101.327H263.613H241.664H241.439L241.465 101.55C241.953 105.706 242.44 112.307 242.44 116.459V146.618M263.846 101.327L242.44 146.618M262.35 116.223C262.108 122.788 261.865 134.184 261.623 145.615C276.415 144.391 290.718 142.441 303.573 140.006L303.81 139.961V140.203V159.051V159.221L303.643 159.249C290.279 161.443 276.191 162.91 261.62 163.889C261.806 182.104 262.782 200.179 263.672 216.652C263.984 222.429 264.286 228.008 264.539 233.328C284.269 241.175 300.104 253.406 312.768 264.895L312.895 265.01L312.801 265.153L302.07 281.553L301.94 281.753L301.766 281.589C289.676 270.183 277.592 260.468 265.277 253.394V253.4V253.41V253.42V253.43V253.44V253.45V253.46V253.47V253.48V253.49V253.5V253.51V253.521V253.531V253.541V253.551V253.561V253.571V253.581V253.591V253.601V253.611V253.621V253.631V253.641V253.651V253.661V253.671V253.681V253.691V253.701V253.711V253.721V253.731V253.741V253.751V253.761V253.772V253.782V253.792V253.802V253.812V253.822V253.832V253.842V253.852V253.862V253.872V253.882V253.892V253.902V253.912V253.922V253.932V253.942V253.952V253.962V253.972V253.982V253.992V254.002V254.012V254.023V254.033V254.043V254.053V254.063V254.073V254.083V254.093V254.103V254.113V254.123V254.133V254.143V254.153V254.163V254.173V254.183V254.193V254.203V254.213V254.223V254.233V254.243V254.253V254.263V254.274V254.284V254.294V254.304V254.314V254.324V254.334V254.344V254.354V254.364V254.374V254.384V254.394V254.404V254.414V254.424V254.434V254.444V254.454V254.464V254.474V254.484V254.494V254.504V254.514V254.525V254.535V254.545V254.555V254.565V254.575V254.585V254.595V254.605V254.615V254.625V254.635V254.645V254.655V254.665V254.675V254.685V254.695V254.705V254.715V254.725V254.735V254.745V254.755V254.765V254.776V254.786V254.796V254.806V254.816V254.826V254.836V254.846V254.856V254.866V254.876V254.886V254.896V254.906V254.916V254.926V254.936V254.946V254.956V254.966V254.976V254.986V254.996V255.006V255.016V255.027V255.037V255.047V255.057V255.067V255.077V255.087V255.097V255.107V255.117V255.127V255.137V255.147V255.157V255.167V255.177V255.187V255.197V255.207V255.217V255.227V255.237V255.247V255.257V255.267V255.278V255.288V255.298V255.308V255.318V255.328V255.338V255.348V255.358V255.368V255.378V255.388V255.398V255.408V255.418V255.428V255.438V255.448V255.458V255.468V255.478V255.488V255.498V255.508V255.518V255.529V255.539V255.549V255.559V255.569V255.579V255.589V255.599V255.609V255.619V255.629V255.639V255.649V255.659V255.669V255.679V255.689V255.699V255.709V255.719V255.729V255.739V255.749V255.759V255.77V255.78V255.79V255.8V255.81V255.82V255.83V255.84V255.85V255.86V255.87V255.88V255.89V255.9V255.91V255.92V255.93V255.94V255.95V255.96V255.97V255.98V255.99V256V256.01V256.02V256.031V256.041V256.051V256.061V256.071V256.081V256.091V256.101V256.111V256.121V256.131V256.141V256.151V256.161V256.171V256.181V256.191V256.201V256.211V256.221V256.231V256.241V256.251V256.261V256.271V256.282V256.292V256.302V256.312V256.322V256.332V256.342V256.352V256.362V256.372V256.382V256.392V256.402V256.412V256.422V256.432V256.442V256.452V256.462V256.472V256.482V256.492V256.502V256.512V256.522V256.533V256.543V256.553V256.563V256.573V256.583V256.593V256.603V256.613V256.623V256.633V256.643V256.653V256.663V256.673V256.683V256.693V256.703V256.713V256.723V256.733V256.743V256.753V256.763V256.773V256.784V256.794V256.804V256.814V256.824V256.834V256.844V256.854V256.864V256.874V256.884V256.894V256.904V256.914V256.924V256.934V256.944V256.954V256.964V256.974V256.984V256.994V257.004V257.014V257.024V257.035V257.045V257.055V257.065V257.075V257.085V257.095V257.105V257.115V257.125V257.135V257.145V257.155V257.165V257.175V257.185V257.195V257.205V257.215V257.225V257.235V257.245V257.255V257.265V257.275V257.286V257.296V257.306V257.316V257.326V257.336V257.346V257.356V257.366V257.376V257.386V257.396V257.406V257.416V257.426V257.436V257.446V257.456V257.466V257.476V257.486V257.496V257.506V257.516V257.526V257.537V257.547V257.557V257.567V257.577V257.587V257.597V257.607V257.617V257.627V257.637V257.647V257.657V257.667V257.677V257.687V257.697V257.707V257.717V257.727V257.737V257.747V257.757V257.767V257.777V257.788V257.798V257.808V257.818V257.828V257.838V257.848V257.858V257.868V257.878V257.888V257.898V257.908V257.918V257.928V257.938V257.948V257.958V257.968V257.978V257.988V257.998V258.008V258.018V258.028V258.039V258.049V258.059V258.069V258.079V258.089V258.099V258.109V258.119V258.129V258.139V258.149V258.159V258.169V258.179V258.189C265.277 268.252 262.954 278.16 256.478 285.553C249.997 292.952 239.387 297.8 222.885 297.8C206.523 297.8 193.795 294.552 185.152 288.523C176.499 282.487 171.957 273.673 171.957 262.595C171.957 252.25 176.561 242.952 185.174 236.245C193.784 229.541 206.39 225.433 222.397 225.433C230.363 225.433 237.853 226.151 244.869 227.588C244.635 221.611 244.329 215.122 244.012 208.407C243.337 194.073 242.612 178.714 242.442 165.132C234.706 165.375 226.967 165.616 219.227 165.616C205.318 165.616 192.631 164.881 178.241 163.902L178.054 163.889V163.702V145.343V145.125L178.272 145.144C192.169 146.368 205.089 147.101 219.715 147.101C227.207 147.101 234.939 146.861 242.44 146.618M262.35 116.223L242.44 146.618M143.324 103.062L143.41 102.817L143.151 102.796L121.69 101.083L121.474 101.065V101.282C121.474 106.407 120.744 113.004 120.012 118.633C119.71 120.573 119.362 122.755 118.982 125.145C115.378 147.78 108.792 189.153 108.792 221.716C108.792 254.779 113.184 281.723 118.067 299.122L118.111 299.279L118.274 299.268L135.345 298.044L135.549 298.029L135.53 297.826C135.286 295.135 135.043 291.715 135.043 289.277V289.269L135.043 289.26C134.801 286.349 135.285 281.72 136.014 278.303L136.015 278.301C138.013 268.474 144.441 249.915 149.92 234.097C151.119 230.636 152.272 227.307 153.324 224.229L153.37 224.094L153.258 224.007L143.259 216.173L143.051 216.011L142.95 216.255C138.899 226.062 133.218 240.542 129.318 251.48C127.694 239.838 126.995 229.765 126.995 218.289C126.995 190.893 134.308 142.442 139.185 119.683L139.185 119.683L139.187 119.674C139.917 115.276 141.865 107.21 143.324 103.062ZM189.917 260.637C189.917 254.723 193.1 249.824 198.572 246.395C204.05 242.963 211.814 241.009 220.934 241.009C229.643 241.009 237.871 242.458 245.621 244.876C245.854 247.998 245.854 250.88 245.854 253.293C245.854 261.353 244.332 267.964 240.294 272.561C236.261 277.152 229.682 279.775 219.471 279.775C210.713 279.775 203.316 278.065 198.115 274.818C192.923 271.576 189.917 266.802 189.917 260.637Z" fill="#2175D7" stroke="#1265C7" stroke-width="0.4"/>
<path id="Vector_18" d="M345.467 190.63L351.413 176.971C352.857 173.767 353.271 170.194 352.598 166.744C351.924 163.295 350.196 160.14 347.653 157.714C347.131 157.198 346.576 156.715 345.992 156.27C343.058 153.975 339.443 152.724 335.718 152.716C333.213 152.725 330.74 153.275 328.468 154.328C328.273 154.414 328.084 154.506 327.889 154.598C327.516 154.777 327.148 154.971 326.791 155.171C324.462 156.509 322.479 158.374 321.004 160.618C319.528 162.862 318.601 165.421 318.296 168.089L315.672 190.073C315.012 191.798 291.466 254.114 299.701 301.69C299.789 302.198 300.037 302.665 300.408 303.022C300.78 303.379 301.257 303.608 301.768 303.675L310.116 304.811C310.726 304.895 311.344 304.744 311.847 304.39C312.35 304.035 312.7 303.504 312.827 302.902L326.834 236.145C326.921 235.73 327.145 235.356 327.47 235.084C327.794 234.811 328.201 234.655 328.625 234.641C329.048 234.626 329.465 234.754 329.807 235.005C330.149 235.255 330.398 235.612 330.513 236.02L350.304 306.223C350.445 306.733 350.75 307.183 351.171 307.503C351.592 307.824 352.107 307.997 352.636 307.997C352.794 307.996 352.951 307.982 353.107 307.954L363.305 305.99C363.898 305.88 364.428 305.551 364.792 305.07C365.155 304.589 365.325 303.989 365.269 303.389C363.771 286.679 355.806 202.98 345.467 190.63Z" fill="#2F2E41"/>
<path id="Vector_19" d="M285.905 145.539C285.813 146.329 285.895 147.13 286.145 147.885C286.396 148.639 286.809 149.33 287.356 149.908C287.902 150.485 288.569 150.936 289.308 151.229C290.048 151.521 290.843 151.648 291.637 151.6L299.065 169.447L304.683 161.119L296.768 145.448C296.599 144.12 295.949 142.9 294.94 142.019C293.932 141.139 292.635 140.658 291.296 140.67C289.957 140.681 288.669 141.183 287.675 142.08C286.681 142.978 286.051 144.209 285.905 145.539L285.905 145.539Z" fill="#A0616A"/>
<path id="Vector_20" d="M336.81 208.6C337.6 208.506 338.359 208.239 339.035 207.82C339.711 207.4 340.286 206.838 340.721 206.172C341.155 205.506 341.439 204.753 341.551 203.965C341.663 203.178 341.601 202.376 341.369 201.615L356.997 190.234L347.588 186.712L334.19 198.059C332.938 198.533 331.903 199.449 331.281 200.635C330.659 201.821 330.494 203.194 330.817 204.493C331.14 205.792 331.929 206.928 333.033 207.685C334.138 208.442 335.482 208.768 336.81 208.6Z" fill="#A0616A"/>
<path id="Vector_21" d="M311.334 181.345C310.735 181.344 310.137 181.285 309.549 181.169C308.128 180.898 306.794 180.282 305.667 179.375C304.54 178.468 303.653 177.298 303.085 175.967L292.679 163.28C292.459 163.012 292.298 162.7 292.209 162.365C292.119 162.03 292.103 161.679 292.159 161.337C292.216 160.995 292.346 160.669 292.539 160.381C292.732 160.093 292.985 159.849 293.28 159.667L300.683 155.084C300.957 154.915 301.261 154.802 301.578 154.751C301.896 154.7 302.22 154.712 302.533 154.787C302.845 154.862 303.14 154.998 303.4 155.187C303.66 155.377 303.879 155.616 304.046 155.891L311.381 167.972L325.427 157.593C326.545 157.007 327.837 156.842 329.067 157.13C330.296 157.417 331.381 158.138 332.124 159.159C332.866 160.18 333.216 161.434 333.11 162.693C333.004 163.951 332.449 165.128 331.546 166.011L317.527 178.797C315.879 180.43 313.653 181.345 311.334 181.345Z" fill="#2F2E41"/>
<path id="Vector_22" d="M349.287 200.425C349.268 200.425 349.249 200.425 349.23 200.425C348.889 200.416 348.553 200.336 348.244 200.19C347.936 200.044 347.661 199.834 347.439 199.575L340.857 191.897C340.632 191.636 340.466 191.33 340.369 190.999C340.272 190.669 340.246 190.322 340.293 189.981C340.34 189.639 340.459 189.312 340.642 189.02C340.825 188.728 341.068 188.479 341.355 188.288L353.68 180.072L342.514 166.65C341.865 165.568 341.626 164.287 341.843 163.043C342.059 161.8 342.716 160.675 343.693 159.876C344.671 159.076 345.903 158.655 347.165 158.689C348.428 158.723 349.636 159.209 350.569 160.06L364.14 173.32C365.208 174.296 366.023 175.516 366.516 176.876C367.008 178.236 367.164 179.695 366.968 181.128C366.773 182.561 366.232 183.925 365.393 185.104C364.554 186.282 363.442 187.239 362.151 187.893L351.059 199.661C350.831 199.902 350.557 200.094 350.252 200.226C349.948 200.357 349.619 200.425 349.287 200.425Z" fill="#2F2E41"/>
<path id="Vector_23" d="M334.168 172.134C334.063 172.134 333.957 172.128 333.852 172.114C333.394 172.059 332.961 171.873 332.605 171.578C332.249 171.284 331.986 170.894 331.845 170.454L326.898 155.292C326.775 154.909 326.794 154.494 326.952 154.123C327.111 153.753 327.398 153.452 327.761 153.277L327.921 153.202C328.067 153.132 328.211 153.064 328.358 152.998C330.665 151.929 333.175 151.371 335.718 151.363C339.018 151.369 342.245 152.339 345.003 154.153C345.372 154.399 345.631 154.78 345.722 155.214C345.813 155.649 345.73 156.102 345.49 156.476L336.212 171.01C335.994 171.355 335.693 171.639 335.335 171.836C334.978 172.032 334.576 172.135 334.168 172.134Z" fill="#E6E6E6"/>
<path id="Vector_24" d="M352.81 124.201C355.744 124.201 358.121 121.824 358.121 118.891C358.121 115.958 355.744 113.581 352.81 113.581C349.877 113.581 347.499 115.958 347.499 118.891C347.499 121.824 349.877 124.201 352.81 124.201Z" fill="#2F2E41"/>
<path id="Vector_25" d="M334.603 113.054C330.873 113.054 327.295 114.536 324.656 117.173C322.018 119.811 320.536 123.388 320.536 127.118V133.069H327.856L331.357 127.118L332.407 133.069H354.622L348.67 127.118C348.67 123.388 347.188 119.811 344.55 117.173C341.912 114.536 338.334 113.054 334.603 113.054Z" fill="#2F2E41"/>
<path id="Vector_26" d="M355.54 115.253C356.128 113.417 357.344 111.847 358.974 110.818C360.605 109.79 362.546 109.369 364.457 109.63C367.842 110.196 370.518 112.916 372.112 115.954C373.707 118.992 374.443 122.393 375.515 125.652C376.587 128.912 378.107 132.189 380.813 134.299C383.52 136.408 387.672 136.981 390.33 134.81C390.026 137.072 389.019 139.182 387.451 140.84C385.883 142.498 383.832 143.621 381.591 144.051C379.349 144.48 377.028 144.194 374.958 143.233C372.888 142.272 371.172 140.684 370.054 138.695C368.651 136.2 368.289 133.276 367.873 130.445C367.457 127.614 366.917 124.684 365.243 122.363C363.568 120.042 360.434 118.526 357.774 119.584L355.54 115.253Z" fill="#2F2E41"/>
<path id="Vector_27" d="M68.4633 315.143L75.0959 315.142L78.2517 289.562L68.4617 289.563L68.4633 315.143Z" fill="#FFB8B8"/>
<path id="Vector_28" d="M87.8884 321.3L67.0419 321.301L67.0415 313.248L79.8337 313.247C81.9699 313.247 84.0186 314.096 85.5291 315.606C87.0397 317.116 87.8883 319.164 87.8884 321.3L87.8884 321.3Z" fill="#2F2E41"/>
<path id="Vector_29" d="M44.6576 315.143L51.2902 315.142L54.4461 289.562L44.656 289.563L44.6576 315.143Z" fill="#FFB8B8"/>
<path id="Vector_30" d="M64.0828 321.3L43.2363 321.301L43.2359 313.248L56.0281 313.247C58.1642 313.247 60.2129 314.096 61.7234 315.606C63.234 317.116 64.0827 319.164 64.0828 321.3L64.0828 321.3Z" fill="#2F2E41"/>
<path id="Vector_31" d="M50.454 307.276L43.9751 306.935C43.641 306.917 43.3138 306.834 43.0123 306.689C42.7108 306.544 42.441 306.34 42.2187 306.091C41.9963 305.841 41.8258 305.549 41.7169 305.233C41.6081 304.917 41.5631 304.582 41.5846 304.248L49.3282 218.528L84.9885 228.149L88.4242 227.211L77.6801 303.097C77.5886 303.668 77.305 304.19 76.8763 304.578C76.4476 304.966 75.8994 305.196 75.3222 305.231L68.338 305.556C67.9888 305.575 67.6393 305.522 67.3117 305.4C66.9841 305.277 66.6855 305.088 66.4348 304.844C66.184 304.6 65.9866 304.307 65.8549 303.983C65.7233 303.659 65.6603 303.312 65.6699 302.962L66.9354 257.417C66.9413 257.206 66.8681 257.001 66.7302 256.842C66.5924 256.682 66.3998 256.58 66.1905 256.556C65.9812 256.532 65.7703 256.586 65.5994 256.71C65.4285 256.833 65.31 257.016 65.2672 257.222L53.0631 305.264C52.9479 305.834 52.6386 306.347 52.1878 306.714C51.737 307.082 51.1727 307.281 50.5911 307.279C50.5457 307.279 50.5 307.278 50.454 307.276Z" fill="#2F2E41"/>
<path id="Vector_32" d="M69.6541 148.39C76.9931 148.39 82.9425 142.442 82.9425 135.104C82.9425 127.767 76.9931 121.818 69.6541 121.818C62.3151 121.818 56.3657 127.767 56.3657 135.104C56.3657 142.442 62.3151 148.39 69.6541 148.39Z" fill="#FFB8B8"/>
<path id="Vector_33" d="M47.5299 174.138L48.991 205.657L49.5192 217.124C49.5402 217.623 49.7097 218.105 50.006 218.507C50.3023 218.909 50.712 219.214 51.1825 219.383L85.4496 231.794C85.7264 231.896 86.0197 231.948 86.315 231.945C86.6525 231.947 86.9869 231.881 87.2982 231.75C87.6095 231.62 87.8913 231.428 88.1268 231.186C88.3623 230.944 88.5467 230.658 88.6689 230.343C88.7911 230.028 88.8487 229.693 88.8382 229.355L87.4333 172.683C87.3411 168.033 85.6292 163.561 82.5928 160.038C79.5564 156.515 75.3857 154.162 70.7999 153.383C70.4684 153.333 70.1312 153.282 69.794 153.237C66.9504 152.884 64.064 153.159 61.3378 154.041C58.6116 154.923 56.112 156.392 54.0147 158.344C51.843 160.342 50.1365 162.791 49.016 165.52C47.8954 168.249 47.3881 171.191 47.5299 174.138L47.5299 174.138Z" fill="#CCCCCC"/>
<path id="Vector_34" d="M101.819 225.504C101.008 225.253 100.268 224.815 99.6565 224.227C99.0451 223.639 98.5798 222.915 98.2976 222.115C98.0154 221.315 97.9242 220.46 98.0312 219.618C98.1383 218.777 98.4406 217.972 98.9141 217.268L87.2937 201.818L97.3214 201.198L106.819 215.964C107.836 216.75 108.543 217.869 108.817 219.124C109.092 220.38 108.915 221.691 108.318 222.83C107.722 223.968 106.744 224.86 105.555 225.349C104.367 225.838 103.044 225.893 101.819 225.504H101.819Z" fill="#FFB8B8"/>
<path id="Vector_35" d="M93.6486 214.472C93.3407 214.347 93.0607 214.162 92.8247 213.928C92.5887 213.695 92.4014 213.416 92.2737 213.11L74.7667 171.406C74.4232 170.59 74.244 169.714 74.2394 168.828C74.2347 167.942 74.4046 167.064 74.7395 166.244C75.0744 165.424 75.5677 164.678 76.1911 164.048C76.8145 163.419 77.5558 162.918 78.3727 162.576C79.1897 162.233 80.0662 162.054 80.9521 162.05C81.8381 162.046 82.7161 162.217 83.5361 162.552C84.3561 162.888 85.1019 163.382 85.7309 164.005C86.36 164.629 86.8599 165.371 87.2021 166.188L104.709 207.892C104.968 208.51 104.971 209.206 104.717 209.826C104.463 210.447 103.974 210.941 103.356 211.201L95.584 214.463C95.2781 214.592 94.9494 214.66 94.6172 214.661C94.285 214.663 93.9557 214.598 93.6485 214.472L93.6486 214.472Z" fill="#CCCCCC"/>
<path id="Vector_36" d="M65.3817 213.001L82.1967 180.81C82.521 180.191 83.0776 179.726 83.7445 179.517C84.4114 179.307 85.1341 179.371 85.754 179.694L110.161 192.439C110.78 192.763 111.245 193.319 111.455 193.986C111.664 194.653 111.6 195.375 111.277 195.995L94.4624 228.186C94.1381 228.805 93.5814 229.27 92.9146 229.479C92.2477 229.689 91.525 229.625 90.9051 229.302L66.4981 216.558C65.8789 216.233 65.4136 215.677 65.2044 215.01C64.9951 214.343 65.0588 213.621 65.3817 213.001Z" fill="#3F3D56"/>
<path id="Vector_37" d="M76.6584 198.294C76.3594 197.5 75.879 196.787 75.2554 196.211C74.6318 195.636 73.8823 195.214 73.0668 194.98C72.2512 194.745 71.3921 194.705 70.5581 194.861C69.724 195.018 68.9382 195.367 68.2631 195.881L52.1519 185.195L52.1245 195.24L67.4282 203.848C68.273 204.816 69.4318 205.456 70.7014 205.656C71.9711 205.855 73.2704 205.602 74.3716 204.939C75.4728 204.276 76.3055 203.247 76.7236 202.032C77.1418 200.817 77.1187 199.494 76.6584 198.294Z" fill="#FFB8B8"/>
<path id="Vector_38" d="M56.2884 200.553L43.1214 190.125C41.6969 189.647 40.4099 188.83 39.3706 187.745C38.3313 186.66 37.571 185.339 37.1547 183.895C36.7384 182.452 36.6788 180.929 36.9808 179.457C37.2828 177.986 37.9375 176.609 38.8886 175.446L50.844 159.781C51.6748 158.766 52.8432 158.084 54.1356 157.859C55.4281 157.634 56.7582 157.882 57.8829 158.557C59.0076 159.233 59.8517 160.29 60.261 161.536C60.6702 162.782 60.6172 164.134 60.1117 165.344L50.6523 180.815L64.5537 187.407C64.8769 187.561 65.164 187.781 65.3959 188.053C65.6277 188.326 65.7991 188.644 65.8988 188.988C65.9984 189.331 66.024 189.692 65.9738 190.046C65.9236 190.4 65.7988 190.74 65.6077 191.042L59.9962 199.921C59.8065 200.221 59.556 200.477 59.2608 200.674C58.9657 200.871 58.6325 201.003 58.2829 201.063C58.269 201.066 58.2551 201.068 58.2411 201.07C57.8976 201.122 57.547 201.103 57.2112 201.014C56.8753 200.925 56.5612 200.768 56.2884 200.553Z" fill="#CCCCCC"/>
<path id="Vector_39" d="M59.613 144.001C59.5559 143.834 59.5379 143.656 59.5601 143.481C59.5823 143.307 59.6443 143.139 59.7412 142.992C59.8382 142.845 59.9675 142.722 60.1194 142.632C60.2712 142.543 60.4416 142.489 60.6173 142.476C60.9772 142.495 61.3294 142.588 61.6527 142.747C61.9759 142.907 62.2635 143.13 62.498 143.403C62.9789 143.958 63.5388 144.438 64.1596 144.83C64.8024 145.154 65.6743 145.108 66.0407 144.49C66.3848 143.91 66.149 143.133 65.9407 142.46C65.4106 140.746 65.114 138.968 65.0589 137.175C64.9989 135.173 65.2813 133.084 66.3897 131.523C67.8201 129.508 70.3779 128.743 72.7985 128.799C75.2191 128.854 77.6004 129.601 79.9981 130.073C80.8259 130.237 81.7988 130.32 82.3525 129.678C82.9411 128.996 82.7249 127.893 82.4745 126.972C81.8248 124.582 81.1355 122.112 79.6258 120.182C77.9936 118.176 75.6619 116.864 73.1005 116.509C70.6414 116.204 68.1451 116.487 65.8169 117.335C62.0236 118.531 58.6858 120.856 56.2498 123.999C53.7387 127.342 52.6536 131.543 53.2319 135.683C53.7968 139.29 55.7081 142.548 58.5804 144.801L59.613 144.001Z" fill="#2F2E41"/>
</g>
<defs>
<clipPath id="clip0">
<rect width="457" height="322" fill="white"/>
</clipPath>
</defs>
</svg>
